
<svg version="1.1" id="Layer_1" xmlns="http://www.w3.org/2000/svg" xmlns:xlink="http://www.w3.org/1999/xlink" x="0" y="0" viewBox="0 0 3350.7 1817.3" xml:space="preserve"><style>.st1{fill:#0c7ac0}</style><defs><path id="SVGID_1_" d="M163.3 171.5h3024.8v1473.8H163.3z"/></defs><clipPath id="SVGID_00000017498428580185323670000016889567869293647757_"><use xlink:href="#SVGID_1_" overflow="visible"/></clipPath><g clip-path="url(#SVGID_00000017498428580185323670000016889567869293647757_)"><path class="st1" d="M2856.3 293.8v-13.1c3.7.2 7.4-.5 10.8-2 3.4-1.5 6.4-3.7 8.8-6.6 2.7-2.9 4.7-6.3 6-10 1.4-3.7 1.9-7.6 1.8-11.5.4-8.2-2.4-16.1-7.8-22.3-2.5-2.7-5.5-4.9-8.9-6.4-3.4-1.5-7-2.2-10.7-2.2v-13.1c5.8 0 11.6 1.1 17 3.3 5.2 2.3 9.9 5.6 13.7 9.8 4 3.9 7.1 8.6 9.1 13.8 2 5.4 2.8 11.2 2.7 17 .1 5.8-.7 11.5-2.7 17-1.9 5.2-5.1 9.9-9.1 13.7-3.9 4-8.5 7.1-13.7 9.1-5.4 2.3-11.2 3.4-17 3.5zm0-96.9v-17l5.3-7.8h15l-20.3 24.8zm54.5 94.9v-82.4h14.4v9.1c3.4-3.5 7.4-6.3 11.8-8.5 4.2-1.5 8.6-2.4 13.1-2.5 4.2-.2 8.4.6 12.3 2.3 3.9 1.7 7.3 4.3 10 7.5 6 7.8 9 17.5 8.4 27.3v47.7h-14.5v-46.4c.6-6.7-1-13.3-4.6-19-1.6-2.1-3.7-3.7-6.1-4.7-2.4-1-5-1.4-7.6-1.1-3-.3-6 .1-8.8 1.1-2.8 1-5.4 2.6-7.5 4.7-4.2 5.6-6.3 12.6-5.9 19.6v45.4h-15zm-54.5-111.9v17l-1.3 2h-9.1l10.4-19zm0 26.8v13.1c-3.6 0-7.1.8-10.4 2.3s-6.2 3.6-8.6 6.3c-5.3 6.2-8.1 14.1-7.8 22.3-.2 7.9 2.6 15.6 7.8 21.5 2.3 2.8 5.2 5 8.5 6.5s6.9 2.2 10.5 2.1v13.1c-5.6-.1-11.2-1.2-16.4-3.3-10.3-4.3-18.6-12.5-22.9-22.9-1.9-5.5-2.8-11.2-2.6-17-.2-5.8.7-11.6 2.6-17 2-5.2 5.1-9.9 9.1-13.8 3.8-4.2 8.5-7.5 13.7-9.8 5.3-2.1 10.8-3.2 16.5-3.4zm-263 87.1v-13.1h1.9c5.2 0 10.4-1.1 15.1-3.3 4.8-2.7 9.2-6 13.1-9.8l10.5 8.5c-4.8 5.6-10.9 10.1-17.6 13.1-6.5 3.3-13.7 4.8-21 4.5h-2zm0-38.6v-11.7h27.3c-.8-6.5-3.8-12.6-8.5-17.1-5.2-4.2-11.6-6.5-18.2-6.5h-.6v-13.1h.6c5.9-.2 11.7.9 17.1 3.1 5.4 2.3 10.3 5.7 14.3 10 8.2 9.4 12.4 21.6 11.8 34.1v1.3h-43.8zm111.9-27.3c-2.4-2.7-5.3-5-8.5-6.5-3.5-1.4-7.3-2.1-11.1-2-3.6-.1-7.1.7-10.4 2.2-3.3 1.5-6.2 3.7-8.5 6.4-5.4 6.1-8.2 14.1-7.8 22.3-.3 7.8 2.3 15.5 7.2 21.5 2.4 2.8 5.5 5 8.8 6.5s7.1 2.2 10.8 2c4 .1 8-.6 11.7-2 3.4-1.6 6.3-4.1 8.5-7.2l9.8 11.2c-4.1 3.5-8.7 6.4-13.7 8.5-5.2 2-10.8 2.9-16.4 2.6-5.6-.1-11.2-1.2-16.4-3.3-5.2-1.8-9.8-4.7-13.7-8.5-3.9-4.2-7-9-9.1-14.4-2.1-5.4-3.2-11.2-3.3-17 0-6.2 1.1-12.4 3.3-18.2 2-5.2 5.1-9.9 9.1-13.7 3.9-4 8.6-7.1 13.7-9.1 5.2-2.1 10.8-3.2 16.4-3.3 5.6.2 11.1 1.1 16.4 2.6 4.7 2 8.9 4.9 12.5 8.5l-9.1 10.5-.2.4zm23.5 46.5v-53.6h-11.1V209h11.1v-20.3h14.4V209h14.4v11.8h-14.4v51.7c-.1 1 .1 1.9.4 2.8.3.9.9 1.7 1.6 2.4.5.7 1.2 1.3 2 1.6.8.4 1.7.5 2.5.4h7.9v13.7h-8.5c-5.6.6-11.3-1-15.7-4.5-1.7-1.9-3.1-4.2-3.9-6.7-.8-2.6-1-5.2-.7-7.8zm41.9 17V209h14.4v11.2c1.7-4.3 5-7.7 9.1-9.8 3.8-2.3 8.1-3.4 12.5-3.3 1.3 0 1.9 0 2.6.6h1.9V223c-1.3-.5-2.6-.7-3.9-.6-1-.5-2.2-.7-3.3-.6-2.6-.1-5.2.3-7.5 1.4-2.4 1-4.5 2.6-6.2 4.6-3.5 5.2-5.2 11.4-4.6 17.6v46.4l-15-.4zm-177.3-85.1v13.1c-6.6.1-13 2.4-18.2 6.5-5.1 4.3-8.4 10.4-9.1 17.1h27.3v11.7H2566c.2 3.5 1.1 6.9 2.7 10 1.6 3.1 3.7 5.9 6.4 8.2 5.1 4.3 11.5 6.8 18.2 7.2v13.1c-5.6-.1-11.2-1.2-16.4-3.3-5.5-2.3-10.5-5.9-14.5-10.5-3.8-3.7-6.7-8.1-8.5-13.1-1.8-5-2.7-10.4-2.6-15.7-.4-5.7.3-11.5 2.3-16.9 1.9-5.4 4.9-10.4 8.9-14.6 3.9-4.2 8.7-7.5 14-9.8 5.3-2.2 11-3.4 16.8-3.3v.3zm-125.1 87.5v-13.1h2c5.2 0 10.4-1.1 15.1-3.3 4.8-2.7 9.1-6 13.1-9.8l10.5 8.5c-4.8 5.6-10.9 10.1-17.7 13.1-6.5 3.3-13.7 4.8-20.9 4.5h-2.1zm0-38.6v-11.7h27.3c-.7-6.7-4-12.8-9.1-17.1-4.9-4.3-11.2-6.6-17.6-6.5h-.7v-13.1h1.1c5.9-.1 11.7 1 17.1 3.2 5.4 2.3 10.3 5.6 14.3 9.9 8.1 9.4 12.4 21.6 11.8 34.1v1.3h-44.2zm56.3 36.3V172.1h14.4v119.7l-14.4-.3zm-56.3-85v13.1c-6.6.1-13 2.4-18.2 6.5-5.1 4.3-8.4 10.4-9.1 17.1h27.3v11.7h-27.3c.2 3.5 1.1 6.9 2.7 10 1.6 3.1 3.7 5.9 6.4 8.2 5 4.4 11.5 7 18.2 7.2v13.1c-5.6-.1-11.2-1.2-16.4-3.3-5.5-2.4-10.4-5.9-14.4-10.5-3.8-3.7-6.7-8.2-8.5-13.1-1.8-5.1-2.6-10.4-2.5-15.7-.4-5.7.3-11.5 2.2-16.9 1.9-5.4 4.9-10.4 8.9-14.6 3.9-4.2 8.7-7.5 14-9.8 5.3-2.3 11-3.4 16.7-3.3v.3zm-134.2 87v-13.1c3.6.2 7.2-.5 10.5-2s6.2-3.7 8.5-6.6c5.4-5.8 8.2-13.6 7.9-21.5.3-8.2-2.5-16.1-7.9-22.3-2.3-2.7-5.3-4.9-8.5-6.4-3.3-1.5-6.9-2.2-10.4-2.2v-13.1c5.6.1 11.1 1.2 16.4 3.3 5.2 2.3 9.9 5.6 13.8 9.8 4 3.9 7.1 8.6 9.1 13.8 2.2 5.4 3.3 11.2 3.3 17-.1 5.8-1.2 11.6-3.3 17-2 5.2-5.1 9.9-9.1 13.7-3.9 3.9-8.6 7-13.8 9.1-5.2 2.2-10.7 3.5-16.4 3.6v-.1zm0-87v13.1c-3.7 0-7.3.8-10.7 2.3-3.4 1.5-6.4 3.6-8.9 6.3-5.3 6.2-8.1 14.1-7.8 22.3-.2 7.9 2.6 15.6 7.8 21.5 2.4 2.8 5.5 5 8.9 6.5 3.4 1.5 7.1 2.2 10.8 2.1v13.1c-5.6 0-11.2-1.1-16.4-3.3-5.3-2.2-10.1-5.3-14.4-9.1-3.8-3.9-6.7-8.6-8.5-13.7-2.4-5.3-3.5-11.2-3.3-17-.3-5.8.8-11.7 3.3-17 1.8-5.2 4.8-9.9 8.5-13.8 4.2-4 9.1-7.4 14.4-9.8 5.2-2.3 10.7-3.4 16.3-3.5zm-253.2 87v-13.1h2c5.2 0 10.3-1.1 15-3.3 4.8-2.7 9.2-6 13.1-9.8l10.5 8.5c-4.8 5.7-10.8 10.1-17.6 13.1-6.5 3.3-13.7 4.8-20.9 4.5h-2.1zm0-38.6v-11.7h27.3c-.8-6.5-3.8-12.5-8.5-17.1-5.2-4.1-11.6-6.4-18.2-6.5h-.6v-13.1h.6c5.9-.1 11.7 1 17.1 3.2 5.4 2.3 10.3 5.6 14.3 9.9 8.1 9.5 12.3 21.7 11.7 34.1v1.3h-43.7zm56.3 36.4v-82.4h13.9V220c2.1-4 5.3-7.4 9.1-9.8 3.8-2.1 8.1-3.2 12.5-3.3 1.1-.2 2.3.1 3.3.6h2v15.4c-1.3-.5-2.6-.7-4-.6-1-.5-2.1-.7-3.3-.6-2.7-.2-5.4.2-7.9 1.3-2.5 1-4.7 2.6-6.5 4.6-3.2 5.3-4.8 11.4-4.5 17.6v46.4l-14.6-.3zm105.3-63.7c-2.3-2.8-5.2-5-8.5-6.5-3.6-1.4-7.4-2.1-11.2-2-3.7 0-7.3.8-10.7 2.3-3.4 1.5-6.4 3.6-8.9 6.3-4.9 6.4-7.4 14.2-7.2 22.3-.2 7.8 2.3 15.4 7.2 21.5 2.4 2.8 5.5 5 8.9 6.5 3.4 1.5 7.1 2.2 10.8 2.1 4 .1 8-.6 11.8-2 3.3-1.8 6.2-4.3 8.5-7.2l9.8 11.2c-4.1 3.5-8.8 6.4-13.8 8.5-5.2 2-10.8 2.9-16.4 2.6-5.8-.1-11.6-1.2-17-3.3-4.9-2-9.3-4.9-13.1-8.5-3.8-4.2-6.9-9.1-9.1-14.4-2.1-5.4-3.2-11.2-3.3-17 0-6.2 1.2-12.3 3.3-18.2 2-5.2 5.1-9.8 9.1-13.7 3.8-3.8 8.2-6.9 13.1-9.1 5.4-2.1 11.2-3.2 17-3.3 5.5.2 11 1.1 16.4 2.6 4.7 2 8.9 4.9 12.5 8.5l-9.1 10.5-.1.3zm21.6 63.7v-82.4h15.1v82.4H2264zm-2-109.9c-.1-1.3.1-2.6.5-3.9.5-1.2 1.2-2.4 2.1-3.3.9-1 2-1.8 3.3-2.4 1.2-.6 2.6-.9 4-.9s2.7.3 4 .9c1.2.6 2.4 1.4 3.3 2.4.9.9 1.6 2.1 2.1 3.3.4 1.2.6 2.6.5 3.9.1 1.2-.1 2.4-.6 3.5-.4 1.1-1.1 2.2-2 3-.9 1-2 1.8-3.3 2.4-1.2.6-2.6.9-4 .9s-2.7-.3-4-.9c-1.2-.6-2.4-1.4-3.3-2.4-1.6-1.6-2.5-3.7-2.6-6v-.5zm-181.2 24.8v13.1c-6.6.1-13 2.4-18.2 6.5-5.1 4.3-8.3 10.4-9.1 17.1h27.3v11.7h-27.3c.2 3.5 1.2 6.9 2.7 10 1.6 3.1 3.7 5.9 6.4 8.2 5.1 4.4 11.5 6.9 18.2 7.2v13.1c-5.6-.1-11.2-1.2-16.4-3.3-5.5-2.3-10.4-5.9-14.4-10.5-3.8-3.7-6.7-8.1-8.5-13.1-1.8-5-2.7-10.4-2.6-15.7-.4-5.7.4-11.5 2.3-16.9 1.9-5.4 5-10.4 8.9-14.5 3.9-4.2 8.7-7.5 14-9.8 5.3-2.3 11-3.4 16.7-3.3v.2zm-227.2 87.1v-13.1c3.7.1 7.4-.6 10.8-2.1 3.4-1.5 6.4-3.7 8.9-6.5 5.1-6 7.7-13.7 7.2-21.5.5-8.1-2-16-7.2-22.3-2.5-2.7-5.6-4.8-8.9-6.3-3.4-1.5-7-2.2-10.7-2.3v-13.1c5.8.1 11.6 1.2 17 3.3 5.2 2.3 9.9 5.6 13.7 9.8 3.8 4 6.7 8.7 8.5 13.8 2.4 5.3 3.6 11.2 3.3 17 .2 5.8-.9 11.7-3.3 17-1.8 5.1-4.7 9.8-8.5 13.7-4.2 3.8-9.1 6.9-14.4 9.1-5.3 2.3-10.8 3.4-16.4 3.5zm69.3-75.3c3.1-3.6 6.9-6.5 11.1-8.5 3.8-1.5 7.8-2.4 11.8-2.5 4.8 0 9.5 1.1 13.7 3.3 4 2.9 7.5 6.5 10.5 10.5 3.3-4.4 7.6-7.9 12.5-10.5 4.7-2.2 9.9-3.3 15.1-3.3 4.1-.2 8.2.6 11.9 2.3 3.7 1.7 7 4.3 9.6 7.5 6.2 7.7 9.3 17.4 8.5 27.3v47.7h-14.5v-46.4c.3-6.6-1.3-13.2-4.5-19-1.5-2-3.5-3.6-5.8-4.6-2.3-1-4.8-1.4-7.3-1.2-2.9-.2-5.8.2-8.5 1.2s-5.2 2.6-7.2 4.6c-3.5 5.9-5.1 12.8-4.5 19.6v45.4H1961V245c.4-6.6-1-13.1-3.9-19-1.7-2-3.8-3.5-6.2-4.5-2.4-1-5-1.5-7.5-1.3-2.8-.2-5.6.2-8.2 1.2-2.6 1-5 2.6-6.9 4.6-3.7 5.9-5.5 12.7-5.2 19.6V291h-14.5v-82.4h14.5l-.2 9.4zm-69.3-11.8v13.1c-3.7 0-7.3.8-10.7 2.3-3.4 1.5-6.4 3.6-8.9 6.3-4.9 6.4-7.5 14.2-7.3 22.3-.2 7.9 2.6 15.6 7.9 21.5 2.2 2.8 5.2 5.1 8.5 6.6s6.9 2.2 10.5 2v13.1c-5.6-.1-11.2-1.2-16.4-3.3-5.2-2-9.9-5.1-13.8-9.1-4-3.9-7.1-8.5-9.1-13.7-2.1-5.4-3.2-11.2-3.3-17 0-5.8 1.1-11.6 3.3-17 2-5.2 5.1-9.9 9.1-13.8 3.9-4.2 8.6-7.5 13.8-9.8 5.2-2.2 10.8-3.3 16.4-3.5zm-213.5 87.1v-13.1h1.8c5.2 0 10.4-1.1 15.1-3.3 4.8-2.7 9.1-6 13.1-9.8l10.5 8.5c-5 5.7-11.2 10.2-18.2 13.1-6.5 3.3-13.7 4.8-20.9 4.5h-1.4zm0-38.7v-11.7h27.3c-.8-6.5-3.8-12.6-8.5-17.1-5.2-4.2-11.6-6.5-18.2-6.5h-.7v-13.1h.7c5.9-.1 11.7 1 17.1 3.2 5.4 2.3 10.3 5.6 14.3 9.9 7.9 9.5 11.9 21.7 11.2 34.1v1.3h-43.2zm155.2-27.2c-2.4-2.7-5.3-5-8.5-6.5-3.5-1.3-7.3-2-11.1-2-3.7 0-7.3.8-10.7 2.3-3.4 1.5-6.4 3.6-8.9 6.3-4.9 6.4-7.4 14.2-7.2 22.3-.3 3.9.2 7.8 1.4 11.5s3.2 7.1 5.7 10.1c2.4 2.8 5.4 5 8.8 6.5 3.4 1.5 7.1 2.2 10.8 2 4 .1 8-.6 11.7-2 3.3-1.8 6.2-4.3 8.5-7.2l9.1 11.2c-3.8 3.6-8.2 6.5-13.1 8.5-5.2 1.9-10.8 2.8-16.4 2.6-5.8 0-11.6-1.2-17-3.3-5-1.8-9.4-4.7-13.1-8.5-3.9-4.2-7-9-9.1-14.4-2.1-5.4-3.2-11.2-3.3-17 0-6.2 1.1-12.4 3.3-18.2 2-5.2 5.1-9.9 9.1-13.7 3.8-3.8 8.2-6.9 13.1-9.1 5.4-2.1 11.2-3.2 17-3.3 5.3.2 10.6 1 15.7 2.6 4.9 1.9 9.4 4.8 13.1 8.5l-8.9 10.8zm-155.2-21.7v13.1c-6.6.1-13 2.4-18.2 6.5-5.1 4.3-8.4 10.4-9.1 17.1h27.3v11.7h-27.3c.2 3.5 1.1 6.9 2.7 10 1.6 3.1 3.7 5.9 6.4 8.2 5 4.4 11.5 7 18.2 7.2v13.1c-5.6-.1-11.2-1.2-16.4-3.3-5.5-2.4-10.4-5.9-14.4-10.5-3.8-3.7-6.7-8.2-8.5-13.1-1.8-5.1-2.6-10.4-2.5-15.7-.4-5.7.3-11.5 2.2-16.9 1.9-5.4 4.9-10.4 8.9-14.6 3.9-4.2 8.7-7.5 14-9.8s11-3.4 16.7-3.3v.3zm-97.4 85.8V279c4 .1 8-.6 11.7-2 3.7-1.5 7.1-3.7 9.9-6.5 4.4-4.1 7.5-9.5 8.8-15.4 1.3-5.9.7-12.1-1.7-17.6s-6.4-10.3-11.5-13.5c-5.1-3.2-11.1-4.8-17.1-4.5v-12.1c5.3.3 10.6 1.4 15.6 3.3 5.2 2.3 9.7 5.9 13.1 10.5v-49.1h14.5v119.7h-13.1v-12.4c-3.7 4.4-8.4 7.7-13.7 9.8-5.2 2-10.6 3.1-16.2 3.3l-.3-1zm0-85v13.1c-7.8-.2-15.3 2.6-21 7.8-5.1 6.1-7.8 13.7-7.8 21.6 0 7.9 2.8 15.5 7.8 21.6 2.7 2.8 5.9 5.1 9.6 6.6 3.6 1.5 7.5 2.2 11.4 2v12.5h-.7c-5.7.6-11.4-.1-16.8-1.9-5.4-1.8-10.3-4.8-14.5-8.8-4.1-3.9-7.4-8.7-9.5-14-2.1-5.3-3.1-11-2.8-16.7.1-5.6 1.2-11.2 3.3-16.4 2-4.9 4.9-9.3 8.5-13.1 4.2-4.1 9.1-7.4 14.4-9.8 5.4-2.2 11.2-3.3 17-3.3l1.1-1.2zm-142.7 85V279c3.9.2 7.8-.5 11.4-1.9 3.6-1.5 6.9-3.7 9.5-6.6 2.7-2.8 4.7-6.1 6.1-9.6 1.4-3.6 2-7.4 1.8-11.3.2-4-.4-7.9-1.7-11.6-1.4-3.7-3.5-7.1-6.2-10-2.6-2.9-5.9-5.1-9.5-6.6-3.6-1.5-7.5-2.1-11.4-1.9v-12.1c5.4.5 10.7 1.8 15.7 3.9 5.3 2.8 9.9 6.5 13.7 11.1v-13.1h13.1v82.4h-14.2V278c-3.1 4.7-7.4 8.6-12.5 11.2-5 2.1-10.3 3.2-15.7 3.3l-.1-1zm0-85v13.1c-3.8-.1-7.6.5-11.1 2s-6.6 3.7-9.2 6.5c-2.7 2.9-4.8 6.3-6.2 10-1.4 3.7-1.9 7.7-1.7 11.6-.2 7.9 2.6 15.6 7.9 21.5 2.7 2.6 5.9 4.6 9.3 6 3.5 1.4 7.2 2 10.9 1.9v12.5h-2c-5.6.1-11.2-1-16.4-3.3-5.2-2-9.8-5.1-13.7-9.1-3.8-3.9-6.7-8.6-8.5-13.7-2.2-5.2-3.3-10.7-3.3-16.4-.2-5.7.7-11.3 2.7-16.6 2-5.3 5.1-10.1 9-14.2 3.9-3.9 8.7-7 13.8-9 5.2-2 10.7-3 16.3-2.8h2.2zm-343.6 86.3v-13.1h2c5.2 0 10.3-1.1 15-3.3 4.8-2.7 9.2-6 13.1-9.8l10.5 8.5c-4.8 5.7-10.8 10.1-17.6 13.1-6.5 3.3-13.7 4.8-20.9 4.5h-2.1zm0-38.6v-11.7h27.3c-.8-6.5-3.8-12.5-8.5-17.1-5.2-4.1-11.6-6.4-18.2-6.5h-.6v-13.1h.6c5.9-.2 11.7.9 17.1 3.1 5.4 2.3 10.3 5.6 14.3 9.9 8.1 9.5 12.3 21.7 11.7 34.1v1.3h-43.7zm56.3 36.3v-82.4h14.5v9.1c3.4-3.5 7.4-6.3 11.7-8.5 4.2-1.5 8.6-2.4 13.1-2.5 4.2-.1 8.4.7 12.2 2.4 3.9 1.7 7.3 4.2 10 7.4 5.8 7.9 8.6 17.5 7.8 27.3V291h-14.4v-46.4c.6-6.7-1-13.3-4.5-19-1.7-2-3.8-3.6-6.2-4.6-2.4-1-5-1.4-7.6-1.2-3-.3-6 .1-8.8 1.1-2.8 1-5.4 2.6-7.5 4.7-4.2 5.6-6.3 12.6-5.8 19.6v45.4h-14.5zm88.3-17v-53.6h-11.1v-11.8h11.1v-20.3h14.5v20.3h13.7v11.8h-13.5v51.7c0 1.8.4 3.6 1.3 5.2.7.7 1.5 1.3 2.4 1.6.9.3 1.9.5 2.9.4h7.2v13.7h-7.9c-5.6.6-11.2-1-15.6-4.5-1.8-1.9-3.1-4.2-3.9-6.7-.8-2.5-1.1-5.1-.7-7.7h-.4zm41.3 17v-82.4h15v82.4h-15zm-2-109.9c-.1-1.3.1-2.6.5-3.9.5-1.2 1.2-2.4 2.1-3.3 1.9-2 4.4-3.2 7.2-3.3 1.4 0 2.7.4 3.9.9s2.3 1.4 3.3 2.4c.9.9 1.7 2.1 2.1 3.3.5 1.2.6 2.6.5 3.9.1 1.2-.1 2.4-.6 3.6-.5 1.1-1.2 2.1-2 3-1.9 2-4.5 3.2-7.2 3.3-2.7-.1-5.3-1.3-7.2-3.3-.9-.8-1.6-1.9-2-3-.5-1.1-.7-2.3-.6-3.6zm36.4 109.9v-82.4h14.5v9.1c3.1-3.6 6.9-6.5 11.1-8.5 4.2-1.5 8.6-2.4 13.1-2.5 4.2-.2 8.4.6 12.3 2.3 3.9 1.7 7.3 4.3 10 7.5 6.3 7.6 9.3 17.4 8.5 27.3V291h-15v-46.4c.4-6.6-.9-13.1-3.9-19-1.8-2-4-3.6-6.5-4.6-2.5-1-5.2-1.4-7.9-1.2-3-.2-6 .2-8.8 1.2-2.8 1-5.4 2.6-7.6 4.6-4 5.7-5.8 12.7-5.2 19.6v45.4h-14.6zm-219.9-85v13.1c-6.6.1-13 2.4-18.2 6.5-4.9 4.5-8.1 10.5-9.1 17.1h27.3v11.7h-27.3c.2 3.5 1.2 6.9 2.7 10 1.6 3.1 3.7 5.9 6.4 8.2 5.1 4.3 11.5 6.8 18.2 7.2v13.1c-5.6-.1-11.2-1.2-16.4-3.3-5.5-2.3-10.4-5.9-14.4-10.5-3.8-3.7-6.7-8.1-8.5-13.1-1.8-5-2.7-10.4-2.6-15.7-.4-5.7.4-11.5 2.3-16.9 1.9-5.4 5-10.4 8.9-14.5 3.9-4.2 8.7-7.5 14-9.8 5.3-2.3 11-3.4 16.7-3.3v.2zm-95.1 121v-12.7c7.4.2 14.7-2.3 20.3-7.2 5.2-6.7 7.7-15.1 7.2-23.5v-4.6c-2.9 4.8-7.2 8.7-12.4 11.2-4.7 2.1-9.9 3.2-15.1 3.3v-12.5c3.8.2 7.6-.5 11.1-1.9 3.5-1.5 6.6-3.7 9.2-6.6 2.9-2.6 5.1-5.9 6.6-9.5 1.5-3.6 2.1-7.5 1.9-11.4.3-4-.4-8-1.8-11.8-1.5-3.7-3.8-7.1-6.7-9.9-2.5-2.9-5.6-5.1-9.2-6.6-3.5-1.5-7.3-2.1-11.1-1.9v-13.5c5.4.6 10.7 1.9 15.7 3.9 5.2 2.6 9.7 6.4 13.1 11.1v-13.1h13.7V280c.4 6.3-.4 12.6-2.4 18.5s-5.2 11.4-9.4 16.1c-3.9 4.1-8.7 7.3-14 9.3-5.3 2.2-11 3-16.7 2.6zm0-119v13.1c-3.9-.2-7.8.5-11.4 2-3.6 1.5-6.9 3.7-9.5 6.5-2.7 2.9-4.8 6.3-6.2 10-1.4 3.7-1.9 7.7-1.7 11.6-.2 7.9 2.6 15.6 7.9 21.5 5.7 5.3 13.2 8.1 20.9 7.9v12.5h-2c-5.6.2-11.2-.9-16.4-3.3-5.3-1.9-10.1-4.9-14-8.9-4-4-7-8.8-8.9-14-2.6-7.9-3.2-16.4-1.8-24.7 1.5-8.2 5-16 10.3-22.5 4.1-3.9 8.9-7 14.2-9 5.3-2 10.9-2.9 16.6-2.7h2zm0 105.9v13.1h-2.6c-7.9.3-15.7-1.3-22.9-4.5-6.9-3.2-12.9-7.9-17.6-13.8l11.7-8.5c3.8 4.2 8.2 7.7 13.1 10.5 5.1 2.6 10.7 3.9 16.4 3.9.4 0 .7 0 1.1-.1.2-.1.5-.3.8-.6zm-149.2-20.9V280c3.8.1 7.6-.6 11.1-2 3.5-1.5 6.7-3.7 9.2-6.5 2.6-2.8 4.7-6.1 6-9.7 1.3-3.6 2-7.4 1.8-11.2.2-3.9-.4-7.9-1.7-11.6-1.3-3.7-3.4-7.1-6.1-10-2.6-2.8-5.7-5-9.3-6.5-3.5-1.5-7.3-2.1-11.1-2v-13.1c5.2.6 10.3 1.9 15.1 3.9 5.3 2.7 9.9 6.5 13.7 11.1v-13.1H855v82.4h-15V278c-3.1 4.7-7.4 8.6-12.5 11.2-4.7 2.1-9.8 3.2-15 3.3zm60.9-.7v-82.4h14.2v11.2c1.9-4.1 5.1-7.6 9.1-9.8 3.8-2.3 8.1-3.4 12.5-3.3 1.3 0 1.9 0 2.6.6h1.9v14.8c-1.2-.5-2.6-.7-3.9-.6-1-.6-2.1-.8-3.3-.6-2.6-.1-5.2.3-7.6 1.4-2.4 1-4.5 2.6-6.2 4.6-3.5 5.2-5.2 11.4-4.6 17.6v46.4l-14.7.1zm-60.9-84.3v13.1c-3.9-.2-7.8.4-11.4 1.9-3.6 1.5-6.9 3.7-9.5 6.5-2.7 2.9-4.8 6.3-6.1 10-1.3 3.7-1.9 7.7-1.7 11.6-.2 7.9 2.6 15.6 7.8 21.5 2.8 2.7 6.1 4.7 9.6 6.1 3.6 1.4 7.4 2 11.3 1.8v12.5h-1.9c-5.6.3-11.3-.8-16.4-3.3-5.3-2.2-10.2-5.3-14.5-9.1-3.8-3.9-6.7-8.6-8.5-13.7-1.9-5.2-2.8-10.8-2.6-16.4-.3-5.6.5-11.2 2.4-16.5 1.9-5.3 4.9-10.2 8.7-14.3 4.1-4 8.9-7.1 14.2-9.1 5.3-2 11-2.9 16.6-2.7l2 .1zm-142 85V280c3.8.2 7.6-.5 11.1-1.9 3.5-1.5 6.6-3.7 9.2-6.6 2.9-2.6 5.1-5.9 6.6-9.5 1.5-3.6 2.1-7.5 1.9-11.4.3-4-.4-8-1.8-11.8-1.5-3.7-3.8-7.1-6.7-9.9-2.5-2.9-5.6-5.1-9.2-6.6-3.5-1.5-7.3-2.1-11.1-1.9v-13.1c5.2.6 10.3 1.9 15.1 3.9 5.4 2.6 10.1 6.4 13.7 11.1v-13.1H713v82.4h-15.1v-13.7c-2.9 4.8-7.2 8.7-12.4 11.2-4.7 2.3-9.8 3.4-15 3.4zm0-85v13.1c-3.9-.2-7.8.5-11.4 2-3.6 1.5-6.9 3.7-9.5 6.5-2.7 2.9-4.8 6.3-6.2 10-1.4 3.7-1.9 7.7-1.7 11.6-.2 7.9 2.6 15.6 7.9 21.5 5.7 5.3 13.2 8.1 20.9 7.9v12.5h-2c-5.6.2-11.2-.9-16.4-3.3-10.4-4.3-18.6-12.5-22.9-22.9-2.6-7.9-3.2-16.4-1.8-24.7 1.5-8.2 5-16 10.3-22.5 4.1-3.9 8.9-7 14.2-9 5.3-2 10.9-2.9 16.6-2.7h2zm-147.9 85V280c3.8.2 7.6-.5 11.1-2s6.6-3.7 9.2-6.6c2.9-2.6 5.1-5.9 6.6-9.5s2.1-7.5 1.9-11.4c.3-4-.4-8-1.9-11.8-1.5-3.7-3.8-7.1-6.7-9.9-2.5-2.8-5.7-5.1-9.2-6.5-3.5-1.5-7.3-2.1-11.1-1.9v-13.1c5.4.6 10.7 1.9 15.7 3.9 5 3 9.4 6.9 12.9 11.5v-13.1H565V292h-14.5v-13.7c-3.4 4.8-7.9 8.6-13.1 11.2-4.7 2.1-9.8 3.3-15 3.3l.2-.3zm60.8-.7v-82.4h13.8v11.2c2.1-4 5.2-7.4 9.1-9.8 3.8-2.2 8.1-3.3 12.5-3.3 1.1-.2 2.3 0 3.3.6h1.9v14.8c-1.2-.5-2.6-.7-3.9-.6-1-.5-2.1-.7-3.3-.6-2.7-.2-5.4.2-7.9 1.3-2.5 1-4.7 2.6-6.5 4.7-3.5 5.2-5.1 11.4-4.5 17.6v46.4l-14.5.1zm-60.8-84.3v13.1c-3.8-.2-7.6.4-11.1 1.9s-6.6 3.7-9.2 6.6c-2.9 2.8-5.2 6.1-6.7 9.9-1.5 3.7-2.1 7.8-1.8 11.8-.1 4 .6 8 2 11.7 1.5 3.7 3.7 7.1 6.5 9.9 2.7 2.6 5.8 4.7 9.3 6.1 3.5 1.4 7.2 2 11 1.8v12.5h-2c-5.6.2-11.2-.9-16.4-3.3-10.4-4.3-18.6-12.5-22.9-22.9-1.9-5.2-2.9-10.7-2.8-16.2-.2-5.7.7-11.3 2.8-16.6 2-5.3 5.1-10.1 9-14.2 3.9-4 8.6-7.1 13.8-9.1 5.2-2 10.7-2.9 16.3-2.6l2.2-.4zm-234.3 85V280c3.8.1 7.6-.5 11.1-2s6.6-3.7 9.2-6.5c2.7-2.8 4.7-6.1 6.1-9.6 1.4-3.6 2-7.4 1.8-11.3.2-4-.4-7.9-1.7-11.6-1.4-3.7-3.5-7.1-6.2-10-2.6-2.8-5.7-5-9.2-6.5-3.5-1.5-7.3-2.1-11.1-2v-13.1c5.2.6 10.3 1.9 15.1 3.9 5.3 2.8 9.9 6.5 13.7 11.1v-13.1h13.7v82.4h-15V278c-3.1 4.7-7.4 8.6-12.5 11.2-4.7 2.1-9.8 3.2-15 3.3zm0-97.5v-18.2l2.6-5.2h15.7l-18.2 22.9-.1.5zm74.6 23.5c3.2-3.4 7-6.3 11.1-8.5 4-1.5 8.2-2.4 12.5-2.5 4.6 0 9.1 1.1 13.1 3.3 4.1 2.8 7.7 6.3 10.5 10.5 3.5-4.2 7.7-7.7 12.5-10.5 4.8-2.1 9.9-3.2 15.1-3.3 4.2-.2 8.4.6 12.3 2.3 3.9 1.7 7.3 4.3 10 7.5 5.7 7.9 8.4 17.6 7.8 27.3v47.7h-14.4v-46.4c.4-6.6-.9-13.2-4-19-1.7-2-3.8-3.5-6.2-4.5-2.4-1-5-1.5-7.5-1.3-2.8-.2-5.6.2-8.2 1.2-2.6 1-4.9 2.6-6.8 4.6-3.7 5.8-5.6 12.7-5.3 19.6v45.4h-13.7v-46.4c.2-6.6-1.4-13.2-4.6-19-1.5-2-3.5-3.6-5.8-4.6-2.3-1-4.8-1.4-7.3-1.2-2.9-.2-5.8.2-8.4 1.2-2.7 1-5.1 2.6-7.2 4.6-3.5 5.9-5.1 12.8-4.6 19.6v45.4h-14.4v-82.4h13.7v9.4zm-134.8 9.9c-2.2-2.9-5.2-5.1-8.5-6.5-3.3-1.4-6.9-2.1-10.5-2-3.7 0-7.3.8-10.7 2.3-3.4 1.5-6.4 3.6-8.9 6.3-5.4 6.1-8.2 14.1-7.8 22.3-.2 3.9.4 7.9 1.8 11.5 1.3 3.7 3.4 7.1 6.1 10 2.3 2.9 5.3 5.2 8.8 6.7 3.4 1.5 7.1 2.1 10.9 1.9 3.8.1 7.6-.6 11.1-2 3.4-1.6 6.3-4.1 8.5-7.2l9.8 11.2c-4.1 3.5-8.7 6.4-13.7 8.5-5 1.9-10.4 2.8-15.7 2.6-5.8 0-11.6-1.1-17-3.3-5.2-1.8-9.8-4.7-13.7-8.5-3.9-4.2-7-9-9.1-14.4-1.9-5.5-2.8-11.2-2.6-17-.2-6.2.7-12.3 2.6-18.2 2-5.2 5.1-9.9 9.1-13.7 3.9-4 8.6-7.1 13.7-9.1 5.4-2.1 11.2-3.2 17-3.3 5.3.2 10.6 1 15.7 2.6 4.9 2 9.3 4.9 13.1 8.5l-9.8 10.5v.3zm60.2-51.1v18.2l-3.3 3.9h-9.8l13.1-21.6v-.5zm0 30.2v13.1c-3.9-.2-7.8.4-11.4 1.9-3.6 1.5-6.9 3.7-9.5 6.6-2.7 2.9-4.8 6.3-6.2 10-1.4 3.7-1.9 7.7-1.7 11.6-.2 7.9 2.6 15.6 7.9 21.5 2.8 2.7 6.1 4.7 9.6 6.1 3.6 1.4 7.4 2 11.3 1.8v12.5h-1.9c-5.9.2-11.7-.9-17.1-3.3-5-2.4-9.6-5.4-13.7-9.1-3.8-3.9-6.7-8.6-8.5-13.7-1.9-5.2-2.8-10.8-2.6-16.4-.3-5.6.5-11.2 2.4-16.5 1.9-5.3 4.9-10.2 8.7-14.3 4.1-4 8.9-7.1 14.2-9.1s11-2.9 16.6-2.7h1.9zm2857.2 86.3v-13.1c3.7.1 7.4-.6 10.8-2 3.4-1.5 6.4-3.7 8.8-6.5 4.9-6.1 7.5-13.7 7.3-21.5.2-8-2.3-15.9-7.3-22.3-2.5-2.7-5.6-4.8-8.9-6.3-3.4-1.5-7-2.2-10.7-2.3v-13.1c5.8.1 11.6 1.2 17.1 3.3 5 2.6 9.6 5.9 13.7 9.8 3.6 4.1 6.4 8.8 8.4 13.8 2.2 5.4 3.3 11.2 3.3 17 0 5.8-1.2 11.6-3.3 17-2 5.2-5.1 9.9-9.1 13.7-3.9 3.9-8.6 7-13.8 9.1-5.1 2.2-10.7 3.3-16.3 3.4zm-147.9-2v-82.4h15.1v82.4h-15.1zm147.9-85.1v13.1c-3.7 0-7.3.8-10.7 2.3-3.4 1.5-6.4 3.6-8.9 6.3-4.9 6.4-7.4 14.2-7.2 22.3-.1 7.8 2.4 15.4 7.2 21.5 2.4 2.8 5.5 5 8.9 6.5 3.4 1.5 7.1 2.2 10.8 2.1v13.1c-5.6-.1-11.2-1.2-16.4-3.3-5.1-2-9.8-5.1-13.7-9.1-4-3.9-7.1-8.6-9.1-13.7-2.1-5.4-3.2-11.2-3.3-17 0-5.8 1.2-11.6 3.3-17 2-5.2 5.1-9.9 9.1-13.8 3.9-4.2 8.5-7.5 13.7-9.8 5.2-2.2 10.7-3.3 16.3-3.5zm-149.8-24.8c-.1-1.3 0-2.6.5-3.9.4-1.2 1.1-2.4 2.1-3.3.9-1 2-1.8 3.2-2.4 1.3-.6 2.6-.9 4-.9s2.7.3 4 .9c1.3.6 2.4 1.4 3.3 2.4.9.9 1.6 2.1 2.1 3.3.4 1.2.6 2.6.5 3.9 0 1.2-.2 2.4-.6 3.5-.5 1.1-1.1 2.1-2 3-.9 1-2 1.8-3.3 2.4-1.2.6-2.6.9-4 .9s-2.7-.3-4-.9c-1.2-.6-2.4-1.4-3.2-2.4-.9-.8-1.5-1.9-2-3-.4-1.1-.6-2.3-.6-3.5zm91.5 46.5c-2.4-2.7-5.3-5-8.5-6.5-3.5-1.3-7.3-2-11.1-2-3.7 0-7.3.8-10.7 2.3-3.4 1.5-6.4 3.6-8.9 6.3-5.4 6.1-8.2 14.1-7.9 22.3-.3 7.9 2.5 15.7 7.9 21.5 2.4 2.8 5.5 5 8.8 6.5 3.4 1.5 7.1 2.2 10.8 2 4 .1 8-.6 11.7-2 3.3-1.8 6.2-4.3 8.5-7.2l9.1 11.2c-3.9 3.8-8.6 6.7-13.8 8.5-5 1.9-10.3 2.8-15.6 2.6-5.8-.1-11.6-1.2-17.1-3.3-5-1.7-9.5-4.6-13.1-8.5-7.9-8.5-12.4-19.7-12.4-31.4-.3-6.2.8-12.5 3.3-18.2 1.8-5.3 4.9-10 9.1-13.7 3.5-4.1 8-7.2 13.1-9.1 5.5-2.1 11.2-3.2 17.1-3.3 5.3.1 10.6 1 15.6 2.6 4.9 2 9.3 4.9 13.1 8.5l-9 10.9z"/><path d="M1239.8 1286.4c101.7.1 200-36.6 276.9-103.3v103.3h145.4V863.8c-.1-112-44.7-219.4-124-298.6s-186.8-123.6-298.8-123.5v145.4c73.5 0 144 29.2 196 81.2s81.2 122.5 81.2 196-29.2 144-81.2 196-122.5 81.2-196 81.2l.5 144.9zm0-844.9c-111 1.6-216.8 46.9-294.7 125.9-77.9 79-121.6 185.6-121.6 296.5s43.7 217.5 121.6 296.5c77.9 79 183.8 124.3 294.7 125.9v-145.4c-73.5 0-144-29.2-196-81.2s-81.2-122.5-81.2-196 29.2-144 81.2-196 122.5-81.2 196-81.2v-145z" fill-rule="evenodd" clip-rule="evenodd" fill="#d9e4a8"/><path d="M591.3 1286.4c95 .1 187.3-31.9 261.8-90.9-31.8-37.6-58.2-79.5-78.5-124.3-50.3 45.3-115.6 70.2-183.2 70-44.9 0-89.1-10.8-128.9-31.7-39.8-20.8-73.9-51-99.4-88-25.5-36.9-41.7-79.5-47.1-124.1-5.4-44.6.1-89.8 16-131.8 15.9-42 41.8-79.4 75.5-109.2 33.6-29.7 74-50.9 117.6-61.6 43.6-10.7 89.1-10.6 132.7.2 43.6 10.8 83.9 32 117.4 61.8 20.3-44.7 46.7-86.3 78.5-123.7-74.5-59.6-167.1-91.9-262.4-91.6-56-.8-111.6 9.5-163.6 30.4s-99.3 51.8-139.2 91.2c-39.9 39.3-71.6 86.2-93.2 137.8-21.6 51.7-32.8 107.1-32.8 163.1s11.1 111.4 32.8 163.1c21.6 51.7 53.3 98.5 93.2 137.8 39.9 39.3 87.2 70.3 139.2 91.2 52 20.8 107.6 31.1 163.6 30.3z" fill-rule="evenodd" clip-rule="evenodd" fill="#b6dcf5"/><path d="M2763.4 1286.4c59.2 0 117.8-12.5 171.9-36.6 54.1-24.1 102.5-59.3 142.2-103.4l-94.3-111.8h-1.4c-25.9 33.1-59 59.9-96.8 78.4-37.8 18.5-79.3 28.2-121.3 28.3v145.4l-.3-.3zm0-348.8l415.5.6c4.5-24.6 6.7-49.6 6.6-74.6 0-111.9-44.5-219.3-123.7-298.4-79.1-79.2-186.5-123.6-298.4-123.7v145.4c60.7 0 119.8 20 168 56.9s83 88.6 98.9 147.2h-266.9v146.6zm0 203.5c-60.8 0-120-20-168.3-56.9a277.42 277.42 0 01-99.4-147.3l267.7.6V791.2h-267.7c16.1-58.7 51-110.4 99.4-147.3 48.4-36.9 107.5-56.9 168.3-56.9V441.6c-56-.8-111.6 9.5-163.6 30.4s-99.3 51.8-139.2 91.2c-39.9 39.3-71.6 86.2-93.2 137.8-21.6 51.7-32.8 107.1-32.8 163.1s11.1 111.4 32.8 163.1c21.6 51.7 53.3 98.5 93.2 137.8 39.9 39.3 87.2 70.3 139.2 91.2 52 20.9 107.6 31.2 163.6 30.4v-145.5z" fill-rule="evenodd" clip-rule="evenodd" fill="#d3d2ea"/><path d="M2130.5 1286.4c95 .1 187.3-31.9 261.8-90.9-31.8-37.6-58.2-79.5-78.5-124.3-50.3 45.3-115.6 70.2-183.2 70-44.9 0-89.2-10.8-128.9-31.7-39.8-20.9-73.9-51.1-99.4-88-25.5-37-41.7-79.6-47.1-124.1-5.4-44.6.1-89.8 16.1-131.8 16-42 41.9-79.4 75.5-109.2 33.7-29.7 74-50.8 117.6-61.5 43.6-10.7 89.2-10.6 132.8.3 43.6 10.8 83.9 32.1 117.4 62 20.4-44.6 46.8-86.3 78.5-123.7-74.5-59.6-167.1-91.9-262.4-91.6-56-.8-111.6 9.5-163.6 30.4s-99.3 51.8-139.2 91.2c-39.9 39.3-71.6 86.2-93.2 137.8-21.6 51.7-32.8 107.1-32.8 163.1s11.1 111.4 32.8 163.1c21.6 51.7 53.3 98.5 93.2 137.8 39.9 39.3 87.2 70.3 139.2 91.2 52 20.9 107.6 31.2 163.6 30.4l-.2-.5z" fill-rule="evenodd" clip-rule="evenodd" fill="#ed7b23"/><path class="st1" d="M3085.4 1598.8v-17c5.2.2 10.4-.8 15.3-2.7 4.8-1.9 9.2-4.8 12.9-8.5 7.1-8.1 11.1-18.6 11.1-29.5 0-10.8-4-21.3-11.1-29.4-3.7-3.7-8.1-6.6-12.9-8.5-4.8-1.9-10-2.8-15.2-2.6v-17.7c7.5 0 14.9 1.8 21.6 5.3 7.2 3.5 13.4 8.7 18.2 15.1v-18.2h18.2v112.5h-19.8v-18.2c-4.4 6.3-10.2 11.5-17.1 15-6.6 3-13.7 4.6-20.9 4.6l-.3-.2zm83-1.4v-162.2h19.6v162.2h-19.6zm-83-114.5v17.7c-5.1-.1-10.1.8-14.8 2.8-4.7 1.9-8.9 4.7-12.5 8.3-7.2 8.1-11.2 18.6-11.2 29.4 0 10.9 4 21.3 11.2 29.5 3.5 3.6 7.8 6.5 12.5 8.4 4.7 1.9 9.7 2.9 14.8 2.8v17h-2.6c-7.6 0-15.1-1.3-22.3-3.9-7-3.2-13.3-7.6-18.7-13.1-5.1-5.2-9.1-11.4-11.8-18.2-2.7-7.1-4-14.7-3.9-22.3-.3-7.8.9-15.5 3.6-22.8 2.7-7.3 6.8-14 12.1-19.7 5.4-5.3 11.9-9.4 19-12.1 7.1-2.7 14.6-3.9 22.2-3.6l2.4-.2zm-235.6 162.3v-17.6c10.1.1 19.9-3.7 27.3-10.5 7.1-8.9 10.6-20 9.8-31.4v-6.5c-3.9 6.4-9.6 11.6-16.4 15-6.6 3-13.7 4.6-20.9 4.6v-17c5.2.2 10.4-.8 15.2-2.7 4.9-1.9 9.3-4.8 12.9-8.5 7.1-8.1 11.1-18.6 11.1-29.5 0-10.8-4-21.3-11.1-29.4-3.7-3.7-8.1-6.6-12.9-8.5-4.8-1.9-10-2.8-15.2-2.6v-17.7c7.5 0 14.9 1.8 21.6 5.3 7.2 3.5 13.4 8.7 18.2 15.1v-18.2h18.2v96.7c.7 8.5-.4 17-3.1 25.1-2.7 8.1-7 15.6-12.6 21.9-5.6 5.5-12.3 9.8-19.6 12.6-7.3 2.8-15.1 4.1-22.9 3.8h.4zm80.5-47.8v-112.5h20.5v112.5h-20.5zm-3.3-149.8c-.1-1.8.2-3.6.9-5.3.7-1.7 1.7-3.2 3-4.5 1.3-1.3 2.8-2.3 4.5-3 1.7-.7 3.5-1 5.3-1 3.6.2 7.1 1.6 9.8 4 1.3 1.3 2.3 2.8 3 4.5.7 1.7 1 3.5.9 5.3.1 1.8-.3 3.5-1.1 5.1-.8 1.6-2 3-3.5 3.9-2.4 2.5-5.6 3.9-9.1 4-1.8 0-3.6-.3-5.3-1-1.7-.7-3.2-1.7-4.5-3-1.2-1.2-2.2-2.6-2.9-4.1-.5-1.5-.9-3.2-1-4.9zm50.4 127.3v-72.7h-15.1v-17h15.1v-27.3h20.3v27.3h19v17h-19v70.1c-.3 2.6.4 5.1 2 7.2.9.9 1.9 1.5 3 2s2.3.7 3.5.7h10.4v18.9h-11.3c-7.8.7-15.5-1.6-21.6-6.5-2.5-2.6-4.3-5.8-5.4-9.2-1.1-3.4-1.4-7.1-1-10.7v.2zm-127.3-91.7v17.7c-5.1-.1-10.1.8-14.8 2.8-4.7 1.9-8.9 4.7-12.5 8.3-7.2 8.1-11.2 18.6-11.2 29.4 0 10.9 4 21.3 11.2 29.5 3.6 3.6 7.8 6.5 12.5 8.4 4.7 1.9 9.7 2.9 14.8 2.8v17h-2.6c-7.7.3-15.4-1.1-22.5-4s-13.5-7.4-18.7-13c-5.1-5.2-9.1-11.4-11.8-18.2-2.6-7.1-4-14.7-3.9-22.3-.3-7.8.9-15.5 3.6-22.8s6.8-14 12.1-19.7c5.4-5.3 11.9-9.4 19-12.1 7.1-2.7 14.6-3.9 22.2-3.6l2.6-.2zm0 144.8v17.6h-2.6c-11.1.4-22.1-1.9-32.1-6.5-9.3-4.2-17.5-10.7-23.5-19l16.4-11.1c4.8 6.2 11 11.2 18.2 14.4 6.9 3.3 14.5 4.9 22.2 4.6h1.4zm-181.8-28.9v-17.4c5.4.1 10.7-.9 15.7-3s9.5-5.1 13.2-9c3.8-3.9 6.7-8.5 8.6-13.5 1.9-5 2.8-10.4 2.5-15.8.3-5.3-.5-10.7-2.4-15.6-1.9-5-4.9-9.5-8.8-13.2-3.7-3.9-8.2-7-13.1-9-5-2-10.3-3-15.7-2.7v-17.1c7.4.1 14.8 1.7 21.6 4.6 6.8 3.2 12.8 7.9 17.6 13.7V1435h19.6v162.2h-18.2v-17c-4.9 6.3-11.5 11-19 13.7-6.7 3.2-14.1 4.8-21.6 4.6v.6zm83.2-1.3v-112.9h20.3v112.5l-20.3.4zm-3.3-149.8c0-1.9.5-3.7 1.3-5.4.8-1.7 1.9-3.2 3.3-4.4 2.4-2.5 5.6-3.9 9.1-4 1.8 0 3.6.3 5.3 1 1.7.7 3.2 1.7 4.5 3 1.3 1.3 2.3 2.8 3 4.5.7 1.7 1 3.5.9 5.3 0 1.7-.3 3.4-.9 5-.7 1.6-1.7 3-3 4.1-1.3 1.3-2.8 2.3-4.5 3-1.7.7-3.5 1-5.3 1-3.4-.1-6.7-1.5-9.1-4-1.5-1.1-2.7-2.6-3.5-4.2-.9-1.6-1.4-3.4-1.6-5.3l.5.4zm-79.9 35.2v17.1c-10.9 0-21.2 4.3-28.9 12-7.7 7.7-12 18.1-12 28.9 0 10.8 4.3 21.3 12 28.9 7.7 7.7 18.1 12 28.9 12v17h-1.9c-7.8.5-15.5-.6-22.9-3.2s-14-6.9-19.5-12.3c-5.6-5.4-9.9-12-12.8-19.3s-4.1-15-3.7-22.8c-.2-7.9 1.4-15.7 4.5-22.9 2.7-6.6 6.7-12.6 11.8-17.6 5.1-5.9 11.7-10.4 19-13.1 7.4-3.2 15.4-4.8 23.5-4.6h2zM2474 1599.1v-17.4c5.2.2 10.4-.8 15.2-2.7 4.8-1.9 9.2-4.8 12.9-8.5 7.2-8.1 11.1-18.6 11.1-29.5 0-10.8-3.9-21.3-11.1-29.4-3.7-3.7-8.1-6.6-12.9-8.5-4.8-1.9-10-2.8-15.2-2.6v-17.7c7.3-.1 14.5 1.8 20.9 5.3 7.4 3.4 14 8.6 19 15.1V1485h18.2v112.5h-20.3v-18.2c-4.4 6.3-10.3 11.5-17.1 15-6.7 3-13.9 4.4-21.3 4.4l.6.4zm0-115.9v17.7c-10.5-.1-20.6 3.9-28.2 11.1-6.8 8.3-10.5 18.7-10.5 29.4s3.7 21.1 10.5 29.5c7.6 7.2 17.7 11.2 28.2 11.2v17h-2.6c-7.6 0-15.1-1.3-22.3-3.9-7.1-3.1-13.5-7.6-18.9-13.1-5.1-5.2-9.1-11.4-11.8-18.2-2.6-7.1-4-14.7-3.9-22.3-.3-7.8.9-15.5 3.6-22.8s6.8-14 12.1-19.7c5.4-5.3 11.9-9.4 19-12.1 7.1-2.7 14.6-3.9 22.2-3.6l2.6-.2zm-356.7 118.2v-17.6c5.1.1 10.1-.8 14.7-2.9 4.6-2 8.8-5.1 12.1-8.9 6.8-8.4 10.4-18.9 10.4-29.8 0-10.8-3.7-21.3-10.4-29.8-3.3-3.8-7.5-6.8-12.1-8.9-4.6-2-9.7-3-14.7-2.9V1483c7.8-.1 15.6 1.2 22.9 3.9 7.2 3 13.6 7.5 19 13.1 5.2 5.6 9.4 12 12.5 19 5.2 15 5.2 31.4 0 46.4-3.1 6.9-7.3 13.3-12.5 19-5.6 5.1-12.1 9.3-19 12.5-7.2 2.9-15 4.4-22.9 4.5zm94.9-102.7c4-4.8 8.8-8.9 14.4-11.8 5.5-2.1 11.2-3.2 17.1-3.3 6.2-.2 12.3 1.4 17.6 4.6 6 3.1 11 7.9 14.4 13.7 4.5-5.9 10.4-10.6 17.1-13.7 6.5-3.2 13.7-4.8 20.9-4.6 5.7-.1 11.3 1 16.5 3.2 5.2 2.3 9.8 5.6 13.6 9.8 7.5 10.6 11.2 23.4 10.5 36.4v64.7h-19.6V1535c.6-9.1-1.4-18.2-5.8-26.2-2.1-2.7-4.7-4.9-7.8-6.4-3.1-1.5-6.5-2.2-9.9-2.1-4-.2-7.9.5-11.5 2.1-3.6 1.6-6.8 4-9.4 7-5.4 7.6-7.9 16.9-7.2 26.2v62.2h-19V1535c.6-9.1-1.5-18.2-5.9-26.2-2.1-2.8-4.9-5-8-6.5-3.2-1.5-6.6-2.2-10.1-2-3.9-.2-7.9.5-11.5 2.1-3.6 1.6-6.8 4-9.4 7-5.1 7.7-7.4 17-6.5 26.2v62.2h-19.6v-112.9h19.6v13.1l-.5.7zm166 98.7v-112.5h19.6v112.5h-19.6zm-5.3-126.2l21-36.4h21.5l-30.1 36.4h-12.4zm-255.8 11v17.7c-5-.1-9.9.9-14.4 3-4.5 2-8.5 5-11.8 8.8-6.8 8.4-10.4 18.9-10.4 29.8s3.7 21.3 10.4 29.8c3.2 3.8 7.2 6.8 11.8 8.8 4.5 2 9.4 3.1 14.4 3v17.6c-7.6-.2-15.2-1.7-22.3-4.5-7.1-2.8-13.6-7-19-12.4s-9.6-11.9-12.4-19c-2.7-7.5-4.1-15.5-4-23.5-.1-7.8 1.3-15.6 4-22.9 3-7 7.2-13.4 12.4-19 5.3-5.5 11.8-9.7 19-12.4 7-3.3 14.6-4.9 22.3-4.8zm-242.2 118.2v-17.6c5 .1 9.9-.8 14.5-2.9 4.5-2 8.5-5.1 11.7-8.9 6.8-8.4 10.4-18.9 10.4-29.8s-3.7-21.3-10.4-29.8c-3.2-3.8-7.2-6.8-11.8-8.8-4.5-2-9.5-3-14.4-2.9V1482c7.8 0 15.5 1.3 22.9 3.9 6.9 3 13.1 7.5 18.2 13.1 5.6 5.2 9.9 11.7 12.4 19 5.3 15 5.3 31.4 0 46.4-2.8 7.1-7 13.5-12.4 19-5.5 5.3-12 9.5-19 12.5-7.1 2.9-14.6 4.4-22.3 4.5h.2zm74.6-3.3v-112.3h19.6v13.1c4.4-4.8 9.7-8.6 15.7-11.1 5.5-2.6 11.5-3.9 17.6-4 5.8-.3 11.5.8 16.8 3.1 5.3 2.3 10.1 5.7 13.9 10 7.9 10.4 11.8 23.3 11.2 36.4v64.7h-19.6v-62.8c.8-9.2-1.5-18.4-6.5-26.2-2.3-2.8-5.2-5-8.5-6.5s-6.9-2.1-10.5-1.9c-4.2-.3-8.3.4-12.2 2-3.9 1.6-7.3 4-10.1 7.1-5.7 7.5-8.5 16.8-7.8 26.2v62.2h-19.6zm-74.6-115.1v17.7c-5.1-.1-10.2.8-14.9 2.9-4.7 2-8.9 5.1-12.3 8.9-6.7 8.3-10.2 18.8-9.8 29.4-.6 11 3.2 21.8 10.5 30.1 3.2 3.8 7.2 6.9 11.7 8.9 4.5 2 9.5 3 14.5 2.9v17.6c-7.6-.1-15.2-1.7-22.3-4.5-7-3-13.5-7.2-19-12.5s-9.8-11.8-12.4-19c-2.9-7.5-4.5-15.5-4.6-23.5.1-7.9 1.7-15.6 4.6-22.9 2.7-7.1 6.9-13.6 12.3-19s11.9-9.6 19-12.3c7-3.2 14.6-4.8 22.3-4.6h.4zm-231.7 118.1v-17.6h3.3c7 .1 14-1.5 20.3-4.6 6.7-3.1 12.6-7.8 17.1-13.7l13.7 11.8c-6.2 7.7-14 13.9-22.9 18.2-9 4.3-18.8 6.5-28.8 6.5-.7 0-2-.7-2.7-.6zm0-52.3v-16h37.4c-.7-9.1-4.9-17.6-11.8-23.5-7-5.8-15.9-8.8-24.9-8.5h-.6v-17.7h.6c7.9-.4 15.7 1 23 4 7.3 3.1 13.7 7.8 18.9 13.7 11.4 12.7 17.3 29.4 16.4 46.4v1.3l-59 .3zm151.9-36.4c-3.1-3.6-6.9-6.5-11.2-8.5-4.8-1.8-9.9-2.7-15-2.5-5.1-.2-10.2.8-15 2.8-4.7 2-8.9 5.1-12.3 8.9-6.8 8.4-10.4 18.9-10.4 29.8s3.7 21.3 10.4 29.8c3.5 3.7 7.7 6.7 12.4 8.6 4.7 1.9 9.8 2.8 14.9 2.6 5.3.2 10.7-.7 15.6-2.6 4.6-2.3 8.7-5.7 11.8-9.8l12.5 15.1c-5.3 4.9-11.5 8.9-18.2 11.7-6.9 2.7-14.2 4-21.5 3.9-7.9 0-15.6-1.6-22.9-4.5-7-2.3-13.2-6.4-18.2-11.8-5.6-5.7-10-12.3-13.1-19.6-5.2-15.3-5.2-31.8 0-47.1 3-7.2 7.4-13.7 13.1-19 5.1-5.4 11.3-9.7 18.2-12.5 7.3-2.7 15.1-4 22.9-3.9 7.3.1 14.6 1.2 21.5 3.3 6.6 2.5 12.7 6.3 17.7 11.2l-13.2 14.1zm-151.9-28.8v17.7c-9.1-.1-17.9 3.2-24.8 9.1-7 5.5-11.6 13.5-12.8 22.4h37.3v15.7h-37.3c.1 4.9 1.3 9.7 3.4 14.1s5.2 8.3 9 11.4c7 5.8 15.7 9 24.8 9.1v17.6c-7.7.1-15.3-1.4-22.3-4.5-7.5-3.1-14.2-7.7-19.6-13.7-5-5.2-8.8-11.4-11.1-18.2-2.7-6.9-4-14.2-3.9-21.6-.7-15.9 5-31.4 15.7-43.2 5.3-5.5 11.7-9.8 18.8-12.6 7.1-2.8 14.7-4.1 22.3-3.7l.5.4zm-190.8 116.5v-17.4c5.2.1 10.3-.8 15.2-2.8 4.8-1.9 9.2-4.8 12.9-8.4 7.2-8.1 11.2-18.6 11.2-29.5 0-10.9-4-21.3-11.2-29.4-3.7-3.6-8.1-6.5-12.9-8.4-4.8-1.9-10-2.8-15.2-2.7v-17.7c7.3.1 14.5 1.9 20.9 5.3 7.2 3.5 13.4 8.7 18.2 15.1V1485h18.2v112.5H1490v-18.2c-4.3 6.3-10.2 11.5-17 15-6.7 2.8-13.8 4.3-21.1 4.4l.5.4zm0-115.9v17.7c-5.2-.1-10.4.8-15.2 2.7-4.8 1.9-9.2 4.8-13 8.4-7.2 8.1-11.1 18.6-11.1 29.4 0 10.8 3.9 21.3 11.1 29.5 3.7 3.6 8.1 6.5 13 8.4 4.8 1.9 10 2.9 15.2 2.7v17h-2.6c-7.6 0-15.1-1.3-22.3-3.9-7-2.9-13.3-7.2-18.5-12.6-5.3-5.4-9.4-11.8-12.2-18.8-2.6-7.1-4-14.7-3.9-22.3-.3-7.8.9-15.5 3.6-22.8 2.7-7.3 6.8-14 12.1-19.7 5.4-5.4 11.9-9.5 19-12.2 7.1-2.7 14.7-3.9 22.3-3.5h2.5zm-230.5 118.2v-17.6c5.1.2 10.3-.8 15-2.8 4.7-2 8.9-5.1 12.3-9 6.4-8.6 9.8-19.1 9.8-29.8s-3.4-21.2-9.8-29.8c-3.4-3.9-7.6-6.9-12.3-8.9-4.7-2-9.8-3-15-2.8V1483c7.8-.1 15.6 1.3 22.9 3.9 7.1 3.1 13.5 7.6 19 13.1 5.3 5.4 9.3 11.9 11.8 19 6.1 14.9 6.1 31.6 0 46.4-2.6 7.2-6.9 13.7-12.5 19-5.4 5.1-11.5 9.3-18.2 12.5-7.3 2.8-15.1 4.4-22.9 4.5h-.1zm134.2-3.3v-163h19.6v162.2l-19.6.8zM1221.9 1483v17.7c-5-.1-9.9.8-14.4 2.9-4.5 2-8.5 5.1-11.8 8.8-6.8 8.4-10.4 18.9-10.4 29.8 0 10.8 3.7 21.3 10.4 29.8 3.2 3.8 7.2 6.9 11.7 8.9 4.5 2 9.5 3 14.5 2.9v17.6c-7.6-.1-15.1-1.7-22.2-4.5-7.1-2.9-13.5-7.2-19-12.5-5.3-5.5-9.6-11.9-12.5-19-2.7-7.6-4-15.5-3.9-23.5-.1-7.8 1.2-15.6 3.9-22.9 2.7-7.2 7-13.6 12.5-19 5.2-5.7 11.7-9.9 19-12.4 7-3.2 14.6-4.8 22.2-4.6zm-132.8 116.5v-17.7c5.4.1 10.7-.9 15.6-2.9s9.4-5.1 13.2-8.9c3.7-3.9 6.7-8.5 8.6-13.6 1.9-5.1 2.8-10.5 2.5-15.9.2-5.3-.7-10.6-2.6-15.5-1.9-5-4.8-9.5-8.5-13.3-3.7-3.8-8.2-6.9-13.2-8.9s-10.3-3-15.6-2.8v-17.1c7.2.1 14.3 1.6 20.9 4.6 6.9 3.1 13 7.8 17.7 13.7v-66.1h20.3v162.2h-18.2v-17c-5 6.1-11.6 10.9-19 13.7-6.9 3.3-14.5 4.9-22.2 4.6l.5.9zm0-115.9v17.1c-5.4-.2-10.7.7-15.7 2.7s-9.4 5.1-13.1 9a38.8 38.8 0 00-8.5 13.3c-1.9 5-2.8 10.2-2.6 15.5-.2 5.3.7 10.5 2.6 15.5 1.9 4.9 4.7 9.4 8.4 13.3 3.7 3.9 8.2 7 13.1 9 5 2 10.3 3 15.7 2.8v17h-2.6c-7.8.3-15.5-.9-22.8-3.6-7.3-2.7-14-6.8-19.7-12.1-5.3-5.6-9.4-12.2-12.1-19.4-2.7-7.2-3.9-14.9-3.6-22.5-.1-7.8 1.3-15.6 3.9-22.9 2.7-6.6 6.7-12.6 11.8-17.6 11.3-11.3 26.6-17.6 42.5-17.7l2.7.6zm-253.3 115.9v-17.7c5.1.1 10.1-.9 14.8-2.8 4.7-1.9 8.9-4.8 12.5-8.4 7.2-8.1 11.1-18.6 11.1-29.5 0-10.8-3.9-21.3-11.1-29.4-3.6-3.6-7.8-6.4-12.5-8.3-4.7-1.9-9.7-2.8-14.8-2.8v-17.7c7.3.1 14.5 1.9 21 5.3 7.2 3.5 13.4 8.7 18.2 15.1v-18.2h18.2v112.5h-19.6v-18.2c-4.6 6.3-10.6 11.5-17.6 15-6.4 2.9-13.3 4.5-20.4 4.6l.2.5zm82.6-1.4v-113.3H938v13.1c4.4-4.8 9.7-8.6 15.6-11.1 5.6-2.6 11.6-3.9 17.7-4 5.8-.3 11.5.8 16.8 3.1 5.3 2.3 10.1 5.7 13.9 10 7.8 10.4 11.8 23.3 11.2 36.4v64.7h-19.6v-62.8c.8-9.2-1.5-18.4-6.5-26.2-2.3-2.8-5.2-5-8.5-6.5s-6.9-2.1-10.5-2c-4.2-.2-8.3.5-12.1 2.1-3.8 1.6-7.3 4-10.1 7-5.8 7.4-8.6 16.8-7.8 26.2v62.2l-19.7 1.1zm-82.6-114.5v17.7c-5.2-.2-10.4.7-15.2 2.6-4.8 1.9-9.2 4.8-12.9 8.5-7.2 8.1-11.2 18.6-11.2 29.4 0 10.9 4 21.3 11.2 29.5 3.7 3.7 8.1 6.6 12.9 8.5 4.8 1.9 10 2.8 15.2 2.7v17h-3.3c-7.6-.1-15.1-1.4-22.2-3.9-7.1-3.1-13.5-7.6-19-13.1-5.1-5.2-9.1-11.4-11.8-18.2-2.6-7.1-4-14.7-3.9-22.3-.3-7.8.9-15.5 3.6-22.8s6.8-14 12.1-19.7c5.4-5.3 11.9-9.4 19-12.1 7.1-2.7 14.6-3.9 22.2-3.6l3.3-.2zm-380.2 115.9v-17.7h.6c5.1.1 10.1-.9 14.8-2.8 4.7-1.9 8.9-4.8 12.5-8.4 7.2-8.1 11.1-18.6 11.1-29.5 0-10.8-3.9-21.3-11.1-29.4-3.6-3.6-7.8-6.4-12.5-8.3-4.7-1.9-9.7-2.8-14.8-2.8h-.6v-17.7h3.3c7.6-.3 15.2.9 22.3 3.6 7.1 2.7 13.6 6.8 19 12.1 5.3 5.7 9.4 12.4 12.1 19.7 2.7 7.3 3.9 15.1 3.6 22.8 0 7.6-1.3 15.1-4 22.3-2.7 6.8-6.6 13-11.7 18.2-5.5 5.4-12 9.9-19 13.1-7.1 2.6-14.7 3.9-22.3 3.9l-3.3.9zm94.3-113.9v62.8c-.5 9.1 2 18.1 7.2 25.5 2.3 3.2 5.4 5.7 8.9 7.5 3.5 1.7 7.4 2.5 11.4 2.4 3.9.1 7.7-.7 11.2-2.3 3.5-1.6 6.6-3.9 9.2-6.8 4.8-7.8 7.1-17 6.5-26.2v-62.8H624v63.6c1 13.8-3.5 27.4-12.5 38-4.4 4.8-9.7 8.6-15.7 11.1s-12.5 3.6-19 3.3c-6.4.4-12.9-.7-18.8-3-6-2.4-11.4-6-15.8-10.7-9-10.8-13.4-24.6-12.5-38.6v-63.6l20.2-.2zm98.1 112.5v-163h19.6v162.2l-19.6.8zm56.9-32.7c.2 5.4 2.3 10.5 5.9 14.5 4.2 3.4 9.7 5.1 15.1 4.5 5.7.2 11.3-1.7 15.7-5.2 1.9-1.4 3.5-3.3 4.5-5.5s1.5-4.6 1.3-7c0-7.2-7.8-13.1-22.2-17-1.7-.6-3.5-1.1-5.3-1.4-9.5-2.1-18.3-6.6-25.5-13.1-2.6-2.7-4.7-5.8-6-9.3-1.3-3.5-2-7.2-1.8-10.9-.1-4.4.7-8.7 2.5-12.7s4.5-7.5 7.9-10.2c8.2-6 18-9.2 28.1-9.2 10.1 0 20 3.2 28.1 9.2 3.3 3.2 5.9 7.1 7.6 11.4 1.7 4.3 2.4 8.9 2.2 13.5v1.3h-18c-.1-5-2-9.9-5.3-13.7-1.8-1.8-4-3.1-6.3-4-2.4-.9-4.9-1.3-7.4-1.2-5.4-.1-10.7 1.5-15.1 4.6-1.7 1.3-3 3-3.9 4.9-.9 1.9-1.3 4-1.3 6.2-.1 1.8.3 3.6.9 5.3.7 1.7 1.7 3.2 3 4.5 5.6 3.4 11.8 5.8 18.2 7.2.9 0 1.8.2 2.6.6 8.8 1.7 17.3 5 24.9 9.8 3.6 2.8 6.5 6.4 8.5 10.5 1.6 4.2 2.5 8.6 2.6 13.1.1 4.8-.8 9.5-2.7 13.9-1.9 4.4-4.8 8.3-8.3 11.5-8 6.8-18.3 10.3-28.8 9.8-10.9.7-21.7-2.8-30.1-9.8-3.7-3.2-6.7-7.3-8.6-11.8-1.9-4.5-2.8-9.5-2.6-14.4h19.6zM167 1598.1v-113.3h20.3v112.5l-20.3.8zm288.6-114.5v17.7c-5.1-.1-10.1.8-14.8 2.8s-8.9 4.7-12.5 8.3c-7.2 8.1-11.2 18.6-11.2 29.4 0 10.9 4 21.3 11.2 29.5 3.6 3.6 7.8 6.5 12.5 8.4 4.7 1.9 9.7 2.9 14.8 2.8v17c-7-.1-13.9-1.7-20.3-4.6-7-3.5-13.1-8.6-17.6-15v65.4h-20.1v-160.4h18.2v18.2c4.8-6.4 11-11.6 18.2-15.1 6.5-3.3 13.6-5.2 20.9-5.3l.7.9zm-291.8-35.3c-.1-1.8.2-3.6.9-5.3.7-1.7 1.7-3.2 3-4.5 2.6-2.6 6.2-4 9.8-4 3.7 0 7.2 1.4 9.8 4 1.3 1.3 2.3 2.8 3 4.5.7 1.7 1 3.5.9 5.3.1 1.7-.3 3.4-.9 5-.7 1.6-1.7 3-3 4.1-2.6 2.6-6.2 4-9.8 4-3.7 0-7.2-1.4-9.8-4-1.2-1.2-2.2-2.6-2.9-4.1-.7-1.6-1-3.3-1-5zm68.7 50.4c4-4.8 8.8-8.9 14.4-11.8 5.5-2.1 11.2-3.2 17.1-3.3 6.4-.1 12.6 1.5 18.2 4.6 5.7 3.3 10.4 8.1 13.7 13.7 4.5-5.9 10.4-10.6 17.1-13.7 6.5-3.2 13.7-4.8 20.9-4.6 5.7-.1 11.3 1 16.5 3.2 5.2 2.3 9.8 5.6 13.6 9.8 7.8 10.5 11.7 23.3 11.2 36.4v64.7h-20.4V1535c.6-9.1-1.4-18.2-5.8-26.2-2.1-2.7-4.7-4.9-7.8-6.4-3.1-1.5-6.5-2.2-9.9-2.1-4-.2-7.9.5-11.5 2.1-3.6 1.6-6.8 4-9.4 7-5.4 7.6-7.9 16.9-7.2 26.2v62.2h-19V1535c.6-9.1-1.5-18.2-5.9-26.2-2-2.7-4.7-4.9-7.8-6.4s-6.4-2.2-9.9-2.1c-4.1-.3-8.1.4-11.9 2-3.8 1.6-7.1 4-9.7 7.1-4.8 7.9-7.1 17-6.5 26.2v62.2h-19.6v-112.9h19.6v13.8z"/></g></svg>